<svg viewBox="-50 -50 1100 1100" xmlns="http://www.w3.org/2000/svg" style="background:#121212;">
  <g id="SKQU_TWR">
    <polygon points="55.02,798.99 56.41,798.92 57.80,799.08 59.14,799.47 60.40,800.08 61.55,800.88 62.54,801.86 63.36,802.99 63.99,804.24 64.40,805.58 64.58,806.97 64.53,808.37 64.26,809.74 63.76,811.05 63.06,812.26 62.17,813.33 61.11,814.25 59.92,814.97 58.62,815.49 57.26,815.79 55.86,815.86 54.48,815.70 53.13,815.31 51.88,814.71 50.73,813.91 49.74,812.92 48.92,811.79 48.29,810.54 47.88,809.20 47.70,807.82 47.74,806.42 48.02,805.04 48.51,803.74 49.22,802.53 50.11,801.45 51.17,800.54 52.36,799.81 53.66,799.29 55.02,798.99" fill="#00F2FF" fill-opacity="0.1" stroke="#00F2FF" stroke-width="1.5" />
  </g>
  <g id="SKIB_TWR">
    <polygon points="26.45,934.32 44.26,929.92 46.27,938.11 53.81,941.91 38.21,972.83 16.71,954.56 16.71,954.56 15.32,954.78 13.91,954.85 12.50,954.77 11.11,954.55 9.75,954.19 8.43,953.69 7.16,953.06 5.97,952.31 4.86,951.44 3.83,950.47 2.92,949.39 2.11,948.23 1.42,947.00 0.87,945.70 0.44,944.35 0.15,942.96 0.01,941.55 0.00,940.14 0.14,938.73 0.41,937.34 0.83,935.99 1.37,934.69 2.05,933.44 2.84,932.28 3.75,931.19 4.77,930.21 5.87,929.33 7.06,928.57 8.32,927.93 9.64,927.43 11.00,927.05 12.39,926.82 13.79,926.73 15.20,926.78 16.60,926.97 17.97,927.31 19.30,927.78 20.58,928.38 21.79,929.11 22.92,929.95 23.96,930.91 24.90,931.96 25.73,933.11 26.45,934.32" fill="#00FF41" fill-opacity="0.1" stroke="#00FF41" stroke-width="1.5" />
  </g>
  <g id="SKGI_TWR">
    <polygon points="84.78,963.08 69.69,979.06 65.06,985.57 52.74,1000.00 39.99,989.08 53.25,973.58 57.47,969.41 57.47,969.41 57.12,968.06 56.93,966.69 56.88,965.30 56.96,963.91 57.18,962.54 57.54,961.19 58.02,959.89 58.63,958.64 59.36,957.46 60.20,956.36 61.15,955.34 62.19,954.42 63.31,953.61 64.51,952.92 65.78,952.35 67.09,951.90 68.44,951.59 69.81,951.41 71.20,951.37 72.58,951.47 73.94,951.70 75.28,952.07 76.57,952.56 77.81,953.19 78.98,953.93 80.07,954.78 81.08,955.74 81.98,956.79 82.78,957.93 83.46,959.14 84.02,960.41 84.45,961.73 84.78,963.08" fill="#FFFB00" fill-opacity="0.1" stroke="#FFFB00" stroke-width="1.5" />
  </g>
  <g id="SKGY_TWR">
    <polygon points="194.20,866.40 195.59,866.51 196.94,866.86 198.22,867.42 199.39,868.18 200.41,869.13 201.27,870.24 201.94,871.47 202.39,872.79 202.62,874.17 202.62,875.57 202.39,876.95 201.93,878.28 201.27,879.51 200.41,880.61 199.39,881.56 198.22,882.32 196.94,882.89 195.59,883.23 194.20,883.34 192.81,883.23 191.46,882.89 190.18,882.32 189.01,881.56 187.99,880.61 187.13,879.51 186.46,878.28 186.01,876.95 185.78,875.57 185.78,874.17 186.01,872.79 186.46,871.47 187.13,870.24 187.98,869.13 189.01,868.18 190.18,867.42 191.46,866.86 192.81,866.51 194.20,866.40" fill="#FF007A" fill-opacity="0.1" stroke="#FF007A" stroke-width="1.5" />
  </g>
  <g id="SKGY_GND">
    <polygon points="194.20,872.05 194.68,872.09 195.14,872.21 195.57,872.41 195.97,872.67 196.31,873.01 196.60,873.39 196.81,873.82 196.95,874.28 197.01,874.75 196.99,875.23 196.89,875.70 196.71,876.14 196.46,876.55 196.15,876.91 195.78,877.21 195.36,877.44 194.91,877.60 194.44,877.69 193.96,877.69 193.49,877.60 193.04,877.44 192.62,877.21 192.25,876.91 191.94,876.55 191.69,876.14 191.51,875.70 191.41,875.23 191.39,874.75 191.45,874.28 191.59,873.82 191.80,873.39 192.09,873.01 192.43,872.67 192.83,872.41 193.26,872.21 193.72,872.09 194.20,872.05" fill="#7A00FF" fill-opacity="0.1" stroke="#7A00FF" stroke-width="1.5" />
  </g>
  <g id="SKBO_TWR">
    <polygon points="162.99,892.73 160.23,890.73 171.41,875.28 174.18,877.29 174.18,877.29 175.49,876.82 176.84,876.48 178.22,876.25 179.61,876.13 181.00,876.13 182.39,876.23 183.77,876.45 185.12,876.77 186.45,877.20 187.73,877.74 188.97,878.38 190.16,879.12 191.28,879.95 192.33,880.87 193.30,881.87 194.20,882.94 195.00,884.08 195.71,885.29 196.32,886.54 196.83,887.84 197.24,889.18 197.53,890.55 197.72,891.93 197.79,893.33 197.76,894.73 197.61,896.12 197.35,897.49 196.99,898.84 196.51,900.15 195.94,901.43 195.26,902.65 194.49,903.81 193.63,904.91 192.68,905.94 191.65,906.88 190.56,907.75 189.39,908.52 188.17,909.19 186.90,909.77 185.59,910.24 184.25,910.60 182.88,910.86 181.49,911.00 180.10,911.03 178.71,910.95 177.33,910.76 175.97,910.46 174.63,910.05 173.34,909.53 172.09,908.92 170.89,908.20 169.76,907.39 168.69,906.49 167.70,905.51 166.78,904.45 165.96,903.33 165.23,902.14 164.59,900.89 164.06,899.60 163.63,898.27 163.31,896.91 163.10,895.53 163.00,894.13 162.99,892.73" fill="#007AFF" fill-opacity="0.1" stroke="#007AFF" stroke-width="1.5" />
  </g>
  <g id="SKBO_S_TWR">
    <polygon points="165.88,882.93 160.23,890.73 162.99,892.73 162.99,892.73 162.99,894.10 163.08,895.45 163.28,896.80 163.58,898.13 163.99,899.43 164.49,900.69 165.09,901.91 165.78,903.08 166.57,904.19 167.43,905.24 168.38,906.22 169.39,907.12 170.48,907.93 171.62,908.66 172.82,909.30 174.06,909.85 175.34,910.29 176.65,910.64 177.99,910.88 179.34,911.01 180.69,911.04 182.05,910.97 183.39,910.78 184.72,910.50 186.02,910.11 187.28,909.62 188.51,909.03 189.68,908.35 190.80,907.58 191.85,906.73 192.84,905.79 193.75,904.78 194.57,903.70 165.88,882.93" fill="#00F2FF" fill-opacity="0.1" stroke="#00F2FF" stroke-width="1.5" />
  </g>
  <g id="SKBO_N_TWR">
    <polygon points="165.88,882.93 171.41,875.28 174.18,877.29 175.49,876.84 176.84,876.50 178.21,876.27 179.59,876.15 180.98,876.14 182.36,876.24 183.73,876.45 185.08,876.78 186.40,877.20 187.69,877.74 188.92,878.37 190.10,879.10 191.22,879.93 192.27,880.84 193.25,881.83 194.14,882.89 194.95,884.03 195.66,885.22 196.28,886.47 196.79,887.76 197.20,889.10 197.50,890.45 197.69,891.83 197.78,893.22 197.75,894.62 197.61,896.00 197.36,897.37 197.01,898.72 196.55,900.03 195.98,901.30 195.32,902.53 194.57,903.70 165.88,882.93" fill="#00FF41" fill-opacity="0.1" stroke="#00FF41" stroke-width="1.5" />
  </g>
  <g id="SKBO_GND">
    <polygon points="180.39,885.10 181.78,885.22 183.14,885.56 184.41,886.12 185.58,886.89 186.61,887.84 187.46,888.94 188.13,890.17 188.58,891.49 188.81,892.88 188.81,894.27 188.58,895.65 188.13,896.98 187.46,898.21 186.61,899.31 185.58,900.26 184.41,901.03 183.14,901.59 181.78,901.93 180.39,902.05 179.00,901.93 177.65,901.59 176.37,901.03 175.21,900.26 174.18,899.31 173.32,898.21 172.66,896.98 172.21,895.65 171.98,894.27 171.98,892.88 172.21,891.49 172.66,890.17 173.32,888.94 174.18,887.84 175.21,886.89 176.37,886.12 177.65,885.56 179.00,885.22 180.39,885.10" fill="#FFFB00" fill-opacity="0.1" stroke="#FFFB00" stroke-width="1.5" />
  </g>
  <g id="SKBO_S_GND">
    <polygon points="187.23,898.56 186.32,899.62 185.24,900.51 184.04,901.22 182.74,901.72 181.37,901.99 179.97,902.04 178.59,901.85 177.26,901.44 176.01,900.82 174.88,900.00 173.90,899.00 173.10,897.85 172.50,896.59 172.11,895.25 171.95,893.85 172.02,892.46 172.32,891.09 172.84,889.79 173.56,888.59" fill="#FF007A" fill-opacity="0.1" stroke="#FF007A" stroke-width="1.5" />
  </g>
  <g id="SKBO_N_GND">
    <polygon points="173.56,888.59 174.47,887.53 175.54,886.64 176.75,885.93 178.05,885.43 179.42,885.16 180.81,885.11 182.20,885.30 183.53,885.71 184.78,886.33 185.91,887.15 186.88,888.15 187.68,889.30 188.29,890.56 188.67,891.90 188.83,893.29 188.77,894.69 188.47,896.06 187.95,897.36 187.23,898.56" fill="#7A00FF" fill-opacity="0.1" stroke="#7A00FF" stroke-width="1.5" />
  </g>
  <g id="SKBO_DEL">
    <polygon points="180.39,889.34 181.11,889.40 181.80,889.58 182.45,889.88 183.05,890.28 183.56,890.78 183.99,891.35 184.31,891.99 184.52,892.68 184.61,893.39 184.58,894.11 184.43,894.82 184.16,895.48 183.79,896.09 183.32,896.63 182.76,897.08 182.13,897.44 181.46,897.67 180.75,897.80 180.04,897.80 179.33,897.67 178.65,897.44 178.03,897.08 177.47,896.63 177.00,896.09 176.62,895.48 176.36,894.82 176.21,894.11 176.17,893.39 176.27,892.68 176.48,891.99 176.80,891.35 177.22,890.78 177.74,890.28 178.33,889.88 178.99,889.58 179.68,889.40 180.39,889.34" fill="#007AFF" fill-opacity="0.1" stroke="#007AFF" stroke-width="1.5" />
  </g>
  <g id="ZZZZ_TWR">
    <polygon points="205.18,0.00" fill="#00F2FF" fill-opacity="0.1" stroke="#00F2FF" stroke-width="1.5" />
  </g>
</svg>